<?xml version="1.0" standalone="no"?>
<!DOCTYPE svg PUBLIC "-//W3C//DTD SVG 20010904//EN"
 "http://www.w3.org/TR/2001/REC-SVG-20010904/DTD/svg10.dtd">
<svg version="1.0" xmlns="http://www.w3.org/2000/svg"
 width="1280.000000pt" height="640.000000pt" viewBox="0 0 1280.000000 640.000000"
 preserveAspectRatio="xMidYMid meet">
<g transform="translate(0.000000,640.000000) scale(0.100000,-0.100000)"
fill="#fff" stroke="none">
<path d="M3870 5665 c-407 -59 -764 -215 -1138 -499 -140 -105 -241 -190 -548
-457 -493 -430 -733 -604 -1038 -754 -319 -157 -568 -223 -986 -263 l-75 -8
84 -28 c245 -83 466 -206 691 -384 139 -110 413 -389 686 -697 361 -408 551
-598 792 -790 752 -600 1687 -918 3027 -1029 362 -31 654 -39 1177 -33 614 7
885 24 1338 83 891 117 1595 354 2155 728 330 219 566 439 1038 966 309 344
470 511 614 632 278 236 559 396 903 514 69 24 121 43 115 44 -493 30 -776 86
-1105 217 -410 163 -720 371 -1275 858 -469 411 -679 568 -930 695 -411 209
-829 262 -1485 189 -725 -80 -1297 -352 -1547 -735 -12 -18 -15 -17 -45 21
-325 397 -839 628 -1608 721 -187 22 -710 28 -840 9z"/>
</g>
</svg>
