<?xml version="1.0" standalone="no"?>
<!DOCTYPE svg PUBLIC "-//W3C//DTD SVG 20010904//EN"
 "http://www.w3.org/TR/2001/REC-SVG-20010904/DTD/svg10.dtd">
<svg version="1.0" xmlns="http://www.w3.org/2000/svg"
 width="1280.000000pt" height="1280.000000pt" viewBox="0 0 1280.000000 1280.000000"
 preserveAspectRatio="xMidYMid meet">
<metadata>
Created by potrace 1.15, written by Peter Selinger 2001-2017
</metadata>
<g transform="translate(0.000000,1280.000000) scale(0.100000,-0.100000)"
fill="#fff" stroke="none">
<path d="M5672 10554 c-35 -36 -83 -102 -122 -169 -123 -213 -209 -330 -377
-513 l-86 -93 -93 7 -94 7 -38 -40 c-38 -41 -182 -301 -200 -363 -20 -66 -45
-391 -39 -511 5 -109 11 -141 83 -451 22 -93 8 -174 -63 -356 l-37 -93 -130
-99 c-754 -570 -1359 -1229 -1794 -1955 -172 -287 -367 -716 -450 -990 -109
-357 -155 -643 -155 -970 0 -218 12 -341 53 -545 107 -533 363 -1009 741
-1375 357 -346 770 -545 1299 -626 175 -27 551 -37 752 -20 1328 110 2824 864
3992 2011 537 528 960 1091 1252 1669 487 962 566 1841 230 2565 -131 282
-361 594 -582 792 -357 319 -730 517 -1188 634 -82 21 -152 44 -157 52 -4 7
-10 66 -12 130 l-6 117 -82 163 c-54 105 -98 178 -126 206 l-42 45 -89 -7 -88
-7 -90 93 c-162 169 -239 272 -368 497 -119 207 -155 243 -245 244 -40 0 -68
-5 -85 -17 -32 -21 -140 -155 -166 -206 l-19 -38 -93 23 c-51 13 -191 34 -311
46 l-219 22 -186 -44 c-137 -32 -187 -40 -190 -31 -9 28 -89 138 -137 190 -51
55 -52 56 -118 60 l-66 4 -59 -58z m-337 -1366 c35 -53 113 -121 253 -221 l73
-52 -44 -40 c-59 -53 -77 -82 -126 -200 -23 -54 -43 -101 -45 -103 -3 -2 -22
13 -44 32 -73 66 -94 147 -112 420 -16 249 -15 252 45 164z m3475 -962 c244
-34 480 -102 654 -190 l101 -51 42 -85 c256 -511 224 -1240 -88 -1984 -367
-873 -1076 -1740 -1976 -2413 -889 -665 -1865 -1078 -2798 -1185 -147 -17
-571 -17 -705 0 -162 21 -343 60 -475 103 -227 75 -464 206 -603 335 -62 57
-64 62 -82 139 -34 148 -43 266 -37 478 6 220 25 362 78 570 338 1342 1589
2775 3168 3632 l125 68 91 -17 c197 -35 371 -30 554 15 252 63 412 177 532
380 l55 94 93 22 94 22 41 -33 c95 -78 173 -98 276 -72 82 21 161 67 230 132
33 31 67 54 85 57 56 10 439 -2 545 -17z"/>
</g>
</svg>
